<svg xmlns="http://www.w3.org/2000/svg" viewBox="0 0 1771.99 1789.46"><defs><style>.cls-1{fill:#fff;}.cls-2{fill:#ffeb80;}</style></defs><g id="Layer_2" data-name="Layer 2"><g id="Layer_8" data-name="Layer 8"><path class="cls-1" d="M934.65,613.47c1.6,3.5,17.66,37.47,45.18,42.16,33.83,5.78,48.77-38.85,82.13-35,36.64,4.22,55.19,62.22,56.66,67,7.78,25.32,12.69,72.24-12.67,93.7-25.94,22-64.46,5.7-69.92,19.17-7.35,18.17,65.86,42.74,73.31,92.62,7.27,48.68-49.68,111-89.18,105.23-41.21-6-51.49-84.52-80.92-81.65-22.65,2.21-19.88,49-62.49,73.75-4.4,2.56-43,24.15-77.59,5.41-15.71-8.5-35.47-27.93-35-50.85.84-41,65.65-55.7,62.08-92.52-1.12-11.57-8.89-24.29-18.33-26.22-18.15-3.72-27.38,35.49-57.36,42-27.35,6-56.14-18.66-69.55-36.64-18.82-25.23-26.13-62.5-11-94.34,11.59-24.31,38.68-50.47,63.13-46.86,18.47,2.73,22.3,20.5,42.7,21.61,14.93.8,34.63-7.55,39.07-21,8.65-26.2-48.21-46.2-49.61-87.81-1.05-31.28,32.3-63.8,68.18-72.94,33.86-8.63,76,2,90.61,27.63C934.58,576.23,922.88,587.76,934.65,613.47Z"/><path class="cls-2" d="M933.54,709.7c14.43,5.93,20.64,18.68,25.46,28.58,7.89,16.2,20.19,54,1,71.82-10.81,10-26.45,8.91-34,8.38-20.15-1.41-53.44-13.55-60-45-5.17-24.9,8.81-50.63,29.44-61C901,709.68,917,702.91,933.54,709.7Z"/><g id="Group_7" data-name="Group 7"><path id="Path_1-7" data-name="Path 1-7" class="cls-1" d="M1205.94,175.51c5,.12,53.94.64,75.11-28.94,26-36.34-17.75-79.24,5.74-116.15,25.8-40.52,104.32-29.23,110.8-28.22,34.08,5.29,91.85,26.26,102.56,68.19,11,42.89-30,78.76-17.34,92.82,17.09,19,87.56-52.83,150.24-33.16,61.18,19.19,101.81,121.42,72.53,164.4-30.54,44.83-128.34,12.21-141.72,48.32C1553.55,370.57,1610,394,1614.69,458c.49,6.61,3.83,64.09-37.84,94-18.9,13.55-52.91,25.66-79.49,12-47.57-24.33-27.89-108.62-73.06-125.4-14.19-5.27-33.51-3.42-41.16,6.55-14.68,19.15,26,52.28,16.61,91.14-8.57,35.44-53.83,55.14-82.53,60.62-40.27,7.69-88.1-5-116.77-40.88-21.88-27.42-37.1-74-19-100.64,13.71-20.09,36.71-14.45,49.62-37.72,9.45-17,10.86-44.88-2.37-57.73-25.78-25.05-81.58,30.18-131.13,8.13-37.24-16.58-56.35-74.17-46.64-121.4,9.16-44.59,45.64-87.84,84-90.44C1162.27,154.39,1169.11,174.66,1205.94,175.51Z"/><path id="Path_2-7" data-name="Path 2-7" class="cls-2" d="M1318,231.59c15.16-13.53,33.65-13.54,48-13.55,23.47,0,74.8,7.09,84.71,39.72,5.57,18.35-4.62,36.06-9.53,44.6-13.12,22.81-46.31,54.9-86.84,44.66-32.12-8.13-54.31-39.15-54.76-69.24C1299.48,269.73,1300.69,247.08,1318,231.59Z"/></g><g id="Group_7-2" data-name="Group 7"><path id="Path_1-7-2" data-name="Path 1-7" class="cls-1" d="M231.25,661.34c3.25,3.06,35.31,32.66,67,25.75,38.94-8.49,35.62-63,73.22-73.4,41.29-11.39,86.48,43,90.16,47.55,19.38,23.88,45.06,72.27,27.08,106.41-18.39,34.93-66.93,34.16-66.95,51,0,22.76,89.5,17.39,119.21,67.86,29,49.27-5.23,141.17-50.28,152.1-47,11.41-92.2-68.63-122.64-52.74-23.43,12.22-.1,61.42-35.23,106.58-3.63,4.67-35.77,44.69-81.21,39.56-20.6-2.33-50.33-14.65-59.79-39.55C174.89,1048,238.29,1004,218.44,965.89c-6.24-12-20.12-22.29-31.14-20.27-21.15,3.89-14.05,50.12-43.49,70.22-26.85,18.32-68.56,4.3-90.83-9.23-31.23-19-55.31-55.94-52.8-96.84,1.91-31.21,19.71-71.15,47.61-77.9,21.08-5.09,32.93,12.38,55.37,4.71,16.44-5.63,34-23.19,33-39.61-2.09-32-72-28.79-91.6-73-14.73-33.23,7.05-82.75,41.7-108.19,32.72-24,82.69-30.82,109.6-9.64C215,621.26,207.4,638.76,231.25,661.34Z"/><path id="Path_2-7-2" data-name="Path 2-7" class="cls-2" d="M271.89,765.44c18.12.11,30.35,11.15,39.84,19.71,15.54,14,45.24,49.4,32.29,76.91-7.29,15.47-24.6,21.09-33,23.8-22.32,7.25-63.45,8.64-84.14-22.36-16.39-24.58-12.52-58.36,5.16-78.53C236.81,779.57,251.15,765.31,271.89,765.44Z"/></g><g id="Group_7-3" data-name="Group 7"><path id="Path_1-7-3" data-name="Path 1-7" class="cls-1" d="M1570.83,1069.41c.07,11.84,9.84,23.86,20.42,29.18,41.81,21,94.39-63.48,138.61-47.66,34.62,12.38,56.49,83.53,31.13,136.17-13.35,27.7-41.57,54-74.9,58.85-36.68,5.29-59.66-18.07-70.12-8-13.37,12.9,30.67,55.67,22,113-.65,4.28-5.61,34.35-29.18,58.36-43.42,44.24-128.8,46.26-150.28,14.59-23.2-34.21,32.33-101.59,7-123.48-8.46-7.3-21-5.27-23-4.91-31.11,5.58-26.51,57.36-67.11,86.08-25.83,18.28-55,16.6-62.74,16-3.24-.23-56.51-5-81.7-51.07-2.5-4.58-24.69-45.19-7.3-72.95,18.72-29.87,64.49-14.88,81.71-46.69,7.07-13.06,8.32-32.16,0-45.23-17.45-27.41-62.1-4.86-87.54-30.63-24.71-25-20.43-84.62,11.67-116.73,5.66-5.66,26-26.05,51.06-23.34,35.73,3.87,49.28,54.6,73,50.44,6.53-1.14,12.11-6.09,20.34-20.29,30-51.68,14.05-86.22,31.13-112.83,30.86-48.08,158-52.44,202.31,7.78,1.54,2.09,28.08,39.23,15.57,72C1610.78,1039.76,1570.69,1045.32,1570.83,1069.41Z"/><path id="Path_2-7-3" data-name="Path 2-7" class="cls-2" d="M1528.52,1146.8c10,28.92-4.58,65.23-27.11,72.7-9.24,3.07-17.44.5-28.69-3.2-16-5.25-59.8-19.63-62.38-53.45-1.8-23.51,17-47.67,40.85-55.44C1482.79,1097.11,1518.25,1117.19,1528.52,1146.8Z"/></g><g id="Group_7-4" data-name="Group 7"><path id="Path_1-7-4" data-name="Path 1-7" class="cls-1" d="M1001.48,1435.86c6.19,7.31,18.49,9.69,27.82,7.49,36.84-8.7,25.55-88.4,61.19-101.57,27.9-10.31,78.42,22.45,90,68.27,6.12,24.1,2.31,55.1-15.86,75.4-20,22.34-46.39,19.79-47.63,31.47-1.59,14.95,47.93,18.59,72.35,58.68,1.82,3,14.36,24.22,12.22,51.35-3.94,50-55.83,95.6-85.6,87.12-32.16-9.16-32.74-79.79-59.83-80.18-9-.14-15.77,7.64-16.83,8.91-16.39,19.62,13.36,49.34,3.11,88.24-6.52,24.76-25.46,38.86-30.56,42.55-2.14,1.54-37.62,26.29-77.2,10.78-3.93-1.54-38.78-15.2-42.42-41.44-3.92-28.25,32.26-42.73,26.41-71.4-2.41-11.77-11.55-24.27-23.5-28-25.06-7.93-41,29.25-70.2,26.49-28.33-2.69-56.63-41.86-53.41-78.44.57-6.46,2.62-29.69,19.54-41,24.16-16.16,58.92,8.25,71.49-6.66,3.46-4.11,4.35-10.08,2.08-23.16-8.27-47.61-36.09-60.76-39.32-86.13-5.84-45.85,70.76-114.63,129.49-100.29,2,.5,37.79,9.74,47,36.55C1010.84,1396.72,988.87,1421,1001.48,1435.86Z"/><path id="Path_2-7-4" data-name="Path 2-7" class="cls-2" d="M1015.45,1505.83c21.23,12.73,31,42.83,21,59.17-4.14,6.7-10.56,9.37-19.45,12.92-12.64,5-47.28,18.89-66.46-.74-13.32-13.64-14.22-38.38-3.47-55.6C961.28,1498.78,993.7,1492.8,1015.45,1505.83Z"/></g><g id="Group_7-5" data-name="Group 7"><path id="Path_1-7-5" data-name="Path 1-7" class="cls-1" d="M561.26,225.77C566.54,232,577,234,585,232.16c31.42-7.42,21.79-75.41,52.19-86.64,23.8-8.79,66.9,19.15,76.81,58.23,5.22,20.56,2,47-13.53,64.32-17.06,19.06-39.57,16.88-40.63,26.85-1.36,12.75,40.89,15.85,61.72,50.06,1.55,2.54,12.25,20.65,10.42,43.8-3.36,42.64-47.62,81.55-73,74.32-27.43-7.82-27.92-68.07-51-68.41-7.72-.11-13.45,6.52-14.36,7.61-14,16.73,11.4,42.09,2.65,75.27-5.56,21.12-21.71,33.14-26.07,36.29-1.82,1.32-32.09,22.44-65.85,9.2-3.35-1.31-33.09-13-36.19-35.35-3.34-24.09,27.52-36.45,22.53-60.91-2.05-10-9.86-20.69-20.05-23.92-21.38-6.77-35,24.95-59.88,22.59-24.17-2.29-48.31-35.7-45.55-66.91.48-5.51,2.23-25.33,16.66-35,20.61-13.79,50.26,7,61-5.69,2.94-3.5,3.7-8.59,1.76-19.74-7.05-40.62-30.78-51.84-33.54-73.48-5-39.11,60.37-97.78,110.47-85.55,1.73.43,32.23,8.31,40.13,31.18C569.25,192.38,550.51,213.1,561.26,225.77Z"/><path id="Path_2-7-5" data-name="Path 2-7" class="cls-2" d="M573.18,285.46c18.11,10.86,26.48,36.53,17.88,50.47-3.53,5.71-9,8-16.59,11-10.79,4.31-40.33,16.12-56.69-.62-11.37-11.64-12.14-32.75-3-47.44C527,279.44,554.63,274.35,573.18,285.46Z"/></g><g id="Group_7-6" data-name="Group 7"><path id="Path_1-7-6" data-name="Path 1-7" class="cls-1" d="M479.09,1421.85c-3.32,11.33,2.56,25.6,11.15,33.71,33.92,32,108.33-33.61,146-5.85,29.53,21.74,30.05,96-9.24,139-20.67,22.64-55.17,39.72-88.38,34.78-36.55-5.45-51.81-34.34-64.68-27.7-16.47,8.49,13.36,61.94-11.37,114.25-1.84,3.9-15.2,31.21-44.58,47.39-54.14,29.83-136.26,7.33-147.71-29.07-12.37-39.32,59.95-87.79,42-115.94-6-9.41-18.56-11.06-20.58-11.29-31.31-3.57-41.75,47.2-88.74,63-29.91,10.07-57.25.13-64.52-2.62-3-1.15-52.57-20.9-63.42-72.16-1.08-5.09-10.64-50.24,13.91-71.77,26.42-23.17,65.85,4.25,91.4-21.21,10.49-10.45,17.15-28.34,12.94-43.2-8.82-31.17-57.91-22.41-74.84-54.32-16.44-31,4.71-86.67,44.55-108.14,7-3.79,32.34-17.43,55.46-7.68,33,13.91,31.44,66.25,55.32,69.08,6.57.78,13.32-2.36,25.24-13.56,43.41-40.79,38.09-78.33,62-98.86,43.24-37.09,166-4.85,191,65.34.87,2.43,15.6,45.5-5.73,73.2C525.74,1405,485.84,1398.8,479.09,1421.85Z"/><path id="Path_2-7-6" data-name="Path 2-7" class="cls-2" d="M416.52,1483.65c1.3,30.49-23,61-46.7,61.69-9.7.28-16.79-4.52-26.48-11.27-13.77-9.59-51.5-35.87-44.29-68.91,5-23,29.87-40.67,54.89-41.26C387.07,1423.11,415.2,1452.43,416.52,1483.65Z"/></g></g></g></svg>